<svg xmlns="http://www.w3.org/2000/svg" version="1.1" xmlns:xlink="http://www.w3.org/1999/xlink" xmlns:svgjs="http://svgjs.com/svgjs" width="1140" height="1025" preserveAspectRatio="none" viewBox="0 0 1140 1025"><g mask="url(&quot;#SvgjsMask1034&quot;)" fill="none"><rect width="1140" height="1025" x="0" y="0" fill="rgba(35, 35, 35, 1)"></rect><path d="M0,282.666C70.371,290.748,137.946,341.813,205.003,318.991C274.868,295.213,330.696,231.767,354.651,161.963C377.939,94.102,339.169,23.694,330.793,-47.561C322.136,-121.204,349.932,-205.257,304.586,-263.925C259.058,-322.828,172.56,-323.438,101.189,-344.617C29.593,-365.863,-41.689,-406.932,-113.965,-388.128C-186.814,-369.175,-234.363,-302.658,-282.505,-244.792C-329.779,-187.969,-377.984,-129.003,-390.198,-56.102C-402.551,17.63,-390.809,97.138,-350.323,159.987C-311.956,219.546,-243.686,251.723,-176.82,275.138C-119.991,295.039,-59.82,275.796,0,282.666" fill="#1c1c1c"></path><path d="M1140 1470.342C1224.4279999999999 1458.9560000000001 1307.975 1443.951 1379.729 1398.026 1451.571 1352.0439999999999 1509.2649999999999 1287.394 1546.066 1210.444 1583.301 1132.588 1592.759 1046.663 1589.003 960.443 1584.921 866.749 1577.414 769.431 1523.51 692.687 1467.024 612.267 1379.641 557.6469999999999 1285.734 528.675 1191.0529999999999 499.46400000000006 1086.726 493.25 994.502 529.4780000000001 905.677 564.371 848.222 646.256 791.341 722.885 738.194 794.482 686.261 869.718 676.1800000000001 958.313 666.2470000000001 1045.603 706.957 1126.591 735.967 1209.516 768.011 1301.114 773.244 1416.191 854.773 1468.8220000000001 936.302 1521.454 1043.829 1483.312 1140 1470.342" fill="#2a2a2a"></path></g><defs><mask id="SvgjsMask1034"><rect width="1140" height="1025" fill="#ffffff"></rect></mask></defs></svg>