<svg xmlns="http://www.w3.org/2000/svg" version="1.1" xmlns:xlink="http://www.w3.org/1999/xlink" xmlns:svgjs="http://svgjs.com/svgjs" width="390" height="844" preserveAspectRatio="none" viewBox="0 0 390 844"><g mask="url(&quot;#SvgjsMask1058&quot;)" fill="none"><rect width="390" height="844" x="0" y="0" fill="rgba(35, 35, 35, 1)"></rect><path d="M0,286.763C78.997,286.766,150.385,377.339,223.872,348.352C295.068,320.268,307.591,224.559,336.917,153.865C365.235,85.601,403.233,16.682,391.747,-56.325C380.313,-128.999,326.023,-185.272,275.194,-238.457C226.432,-289.479,174.836,-348.586,104.723,-356.653C36.418,-364.512,-14.74,-293.407,-82.088,-279.565C-158.965,-263.764,-262.806,-331.535,-312.608,-270.876C-362.97,-209.534,-277.791,-119.435,-278.712,-40.073C-279.458,24.241,-326.425,81.28,-317.431,144.966C-306.781,220.381,-293.401,317.27,-223.861,348.334C-151.739,380.551,-78.991,286.76,0,286.763" fill="#1c1c1c"></path><path d="M390 1161.51C454.746 1164.185 526.671 1176.316 579.024 1138.127 630.981 1100.2269999999999 636.191 1026.8600000000001 657.684 966.247 677.212 911.174 693.8140000000001 857.758 699.075 799.562 705.745 725.79 734.054 643.215 692.427 581.9449999999999 650.7470000000001 520.597 564.292 513.4739999999999 492.379 495.329 422.988 477.82 349.178 452.066 282.698 478.563 217.619 504.502 195.956 583.367 146.644 633.131 92.507 687.764-10.759000000000015 708.6800000000001-20.880999999999972 784.924-31.028999999999996 861.363 57.54599999999999 912.313 101.137 975.919 136.404 1027.379 158.267 1089.192 210.753 1122.913 263.236 1156.633 327.671 1158.935 390 1161.51" fill="#2a2a2a"></path></g><defs><mask id="SvgjsMask1058"><rect width="390" height="844" fill="#ffffff"></rect></mask></defs></svg>