<svg xmlns="http://www.w3.org/2000/svg" version="1.1" xmlns:xlink="http://www.w3.org/1999/xlink" xmlns:svgjs="http://svgjs.com/svgjs" width="744" height="1133" preserveAspectRatio="none" viewBox="0 0 744 1133"><g mask="url(&quot;#SvgjsMask1052&quot;)" fill="none"><rect width="744" height="1133" x="0" y="0" fill="rgba(35, 35, 35, 1)"></rect><path d="M0,536.262C100.395,538.503,194.033,487.048,273.814,426.063C349.397,368.286,399.896,287.214,439.164,200.559C478.337,114.114,507.2,22.781,499.425,-71.806C491.349,-170.048,465.347,-273.288,394.572,-341.899C325.56,-408.802,219.947,-408.009,127.074,-432.774C36.822,-456.84,-49.746,-496.624,-142.436,-485.091C-244.836,-472.349,-353.75,-443.062,-420.776,-364.604C-487.686,-286.281,-495.009,-174.312,-495.929,-71.304C-496.764,22.203,-465.795,109.931,-425.768,194.442C-386.228,277.925,-338.102,356.184,-266.07,414.013C-188.387,476.38,-99.596,534.039,0,536.262" fill="#1c1c1c"></path><path d="M744 1505.3229999999999C812.66 1517.481 882.922 1476.192 934.167 1428.906 981.717 1385.03 984.744 1314.017 1013.912 1256.265 1044.673 1195.36 1105.578 1148.421 1110.212 1080.347 1115.19 1007.211 1094.136 925.88 1039.746 876.7339999999999 986.234 828.381 902.63 848.691 833.008 829.866 765.405 811.587 704.458 749.848 636.76 767.774 569.0409999999999 785.706 542.392 865.614 496.881 918.87 451.743 971.688 384.436 1011.23 370.532 1079.3029999999999 356.438 1148.307 380.313 1223.646 423.224 1279.493 462.897 1331.127 539.446 1330.956 592.691 1368.441 649.453 1408.402 675.645 1493.219 744 1505.3229999999999" fill="#2a2a2a"></path></g><defs><mask id="SvgjsMask1052"><rect width="744" height="1133" fill="#ffffff"></rect></mask></defs></svg>